<?xml version="1.0" encoding="UTF-8" standalone="no"?><!DOCTYPE svg PUBLIC "-//W3C//DTD SVG 1.1//EN" "http://www.w3.org/Graphics/SVG/1.1/DTD/svg11.dtd"><svg width="100%" height="100%" viewBox="0 0 512 512" version="1.1" xmlns="http://www.w3.org/2000/svg" xmlns:xlink="http://www.w3.org/1999/xlink" xml:space="preserve" xmlns:serif="http://www.serif.com/" style="fill-rule:evenodd;clip-rule:evenodd;stroke-linecap:round;stroke-linejoin:round;stroke-miterlimit:1.5;"><path d="M168.466,31.966c0.01,-2.027 0.022,-4.055 0.035,-6.082c0.078,-4.114 3.639,-7.815 7.896,-7.896c5.402,-0.034 10.804,-0.034 16.206,0c4.118,0.079 7.814,3.585 7.896,7.896c0.013,2.016 0.025,4.033 0.035,6.049c36.977,-0.029 73.955,-0.029 110.932,0c0.01,-2.016 0.022,-4.033 0.035,-6.049c0.078,-4.114 3.639,-7.815 7.896,-7.896c5.402,-0.034 10.804,-0.034 16.206,0c4.118,0.079 7.814,3.585 7.896,7.896c0.013,2.027 0.025,4.055 0.035,6.082c8.276,0.01 16.552,0.021 24.828,0.035c38.055,0.181 75.27,21.026 95.238,53.653c10.626,17.363 16.303,37.708 16.399,57.984c0.119,74.908 0.119,149.816 0,224.724c-0.178,37.447 -20.446,74.37 -52.505,94.526c-17.581,11.053 -38.315,17.012 -59.132,17.111c-74.908,0.119 -149.816,0.119 -224.724,0c-38.055,-0.181 -75.27,-21.026 -95.238,-53.653c-10.626,-17.363 -16.303,-37.708 -16.399,-57.984c-0.119,-74.908 -0.119,-149.816 0,-224.724c0.178,-37.447 20.446,-74.37 52.505,-94.526c17.581,-11.053 38.315,-17.012 59.132,-17.111c8.276,-0.014 16.552,-0.025 24.828,-0.035Zm142.937,31.984c-36.935,-0.01 -73.871,0.015 -110.806,0.033c-0.01,8.703 -0.042,17.405 -0.098,26.108c-0.078,4.118 -3.584,7.814 -7.896,7.896c-5.402,0.034 -10.804,0.034 -16.206,0c-4.115,-0.078 -7.815,-3.64 -7.896,-7.896c-0.055,-8.698 -0.088,-17.397 -0.098,-26.095c-8.126,0.003 -16.252,0.004 -24.378,0.004c-32.672,0.052 -64.439,22.035 -75.508,53.436c-2.969,8.421 -4.474,17.347 -4.517,26.303c-0.118,74.927 -0.355,149.856 0.002,224.782c0.259,32.688 22.018,63.995 53.666,75.043c8.359,2.919 17.207,4.394 26.071,4.436c74.927,0.12 149.856,0.352 224.782,-0.002c32.722,-0.259 64.067,-22.223 75.043,-53.665c2.919,-8.36 4.394,-17.208 4.436,-26.072c0.12,-74.927 0.352,-149.856 -0.002,-224.782c-0.26,-32.788 -22.29,-64.092 -53.664,-75.043c-8.367,-2.92 -17.221,-4.393 -26.073,-4.436c-8.221,-0.013 -16.443,-0.023 -24.664,-0.03c-0.01,8.707 -0.042,17.414 -0.098,26.121c-0.078,4.118 -3.584,7.814 -7.896,7.896c-5.402,0.034 -10.804,0.034 -16.206,0c-4.115,-0.078 -7.815,-3.64 -7.896,-7.896c-0.056,-8.714 -0.088,-17.427 -0.098,-26.141Z" style="fill:#79b55b;"/><path d="M112.229,239.988l106.522,106.522l181.02,-181.02" style="fill:none;stroke:#79b55b;stroke-width:32px;"/></svg>