<?xml version="1.0" standalone="no"?>
<!DOCTYPE svg PUBLIC "-//W3C//DTD SVG 20010904//EN"
 "http://www.w3.org/TR/2001/REC-SVG-20010904/DTD/svg10.dtd">
<svg version="1.0" xmlns="http://www.w3.org/2000/svg"
 width="700.000000pt" height="700.000000pt" viewBox="0 0 700.000000 700.000000"
 preserveAspectRatio="xMidYMid meet">
<metadata>
Created by potrace 1.11, written by Peter Selinger 2001-2013
</metadata>
<g transform="translate(0.000000,700.000000) scale(0.100000,-0.100000)"
fill="#000000" stroke="none">
<path d="M2377 6745 c-44 -15 -71 -57 -73 -113 -1 -26 -2 -52 -3 -58 -1 -7
-68 -11 -206 -11 -224 -1 -301 -6 -415 -29 -90 -18 -208 -51 -232 -64 -10 -6
-23 -10 -29 -10 -5 0 -54 -21 -107 -47 -348 -167 -598 -437 -765 -823 -49
-116 -93 -300 -103 -440 -9 -121 -10 -3210 -1 -3310 8 -82 12 -108 29 -190 6
-30 12 -60 14 -66 1 -6 16 -52 33 -103 113 -332 315 -592 611 -786 212 -139
458 -227 705 -251 84 -9 3210 -9 3310 -1 66 5 173 21 223 32 12 3 30 7 40 9
100 22 372 138 410 173 7 7 17 13 21 13 15 0 174 123 240 185 147 139 285 343
368 545 34 82 79 232 89 295 3 22 8 43 9 46 14 22 18 397 18 1764 0 1384 -2
1647 -17 1745 -31 216 -120 448 -239 626 -83 125 -234 285 -352 372 -190 141
-462 260 -655 288 -19 2 -42 6 -50 9 -35 10 -178 18 -355 20 -104 1 -193 3
-196 3 -3 1 -5 22 -4 46 1 25 -5 59 -13 76 -27 55 -49 63 -190 64 -144 2 -172
-4 -207 -46 -20 -24 -25 -40 -25 -86 l0 -57 -757 0 -758 0 -5 60 c-6 69 -23
100 -64 117 -36 14 -257 17 -299 3z m-82 -627 c4 -3 8 -91 9 -195 2 -207 6
-221 62 -248 43 -20 260 -21 309 -1 58 24 65 52 68 263 l2 188 755 0 755 0 2
-188 c3 -270 8 -277 216 -277 94 0 138 4 161 15 56 27 60 41 62 246 1 103 4
191 7 196 7 11 397 10 467 -1 186 -29 315 -78 458 -173 265 -176 448 -474 490
-796 14 -111 8 -3289 -7 -3362 -48 -234 -146 -421 -306 -580 -183 -182 -416
-295 -670 -324 -78 -9 -3278 -7 -3311 2 -12 3 -37 8 -55 11 -445 73 -829 484
-886 950 -10 75 -10 3241 -1 3311 34 257 134 462 313 640 171 171 411 292 637
320 29 4 54 8 55 9 6 5 403 0 408 -6z"/>
<path d="M5407 4945 c-25 -6 -54 -18 -64 -26 -10 -7 -543 -539 -1185 -1180
l-1167 -1166 -653 654 c-359 360 -672 665 -695 679 -107 64 -249 21 -304 -92
-27 -57 -29 -136 -4 -186 24 -47 1510 -1534 1560 -1560 50 -26 136 -28 186 -4
45 21 2556 2532 2581 2580 24 46 27 90 12 148 -16 62 -46 102 -99 133 -51 30
-103 36 -168 20z"/>
</g>
</svg>
